<mxfile host="app.diagrams.net" modified="2024-06-12T13:57:21.703Z" agent="Mozilla/5.0 (Macintosh; Intel Mac OS X 10_15_7) AppleWebKit/537.36 (KHTML, like Gecko) Chrome/125.0.0.0 Safari/537.36" etag="mJSn5pqactwu54ERlPCk" version="24.5.3" type="device">
  <diagram name="Page-1" id="5JaxZtAggYPevSpnGhMV">
    <mxGraphModel dx="1712" dy="582" grid="1" gridSize="10" guides="1" tooltips="1" connect="1" arrows="1" fold="1" page="1" pageScale="1" pageWidth="850" pageHeight="1100" math="0" shadow="0">
      <root>
        <mxCell id="0" />
        <mxCell id="1" parent="0" />
        <mxCell id="TUGLYmm9lG8WNnv0RRxV-4" style="edgeStyle=orthogonalEdgeStyle;rounded=0;orthogonalLoop=1;jettySize=auto;html=1;" edge="1" parent="1" source="TUGLYmm9lG8WNnv0RRxV-2" target="TUGLYmm9lG8WNnv0RRxV-3">
          <mxGeometry relative="1" as="geometry" />
        </mxCell>
        <mxCell id="TUGLYmm9lG8WNnv0RRxV-6" value="1" style="edgeStyle=orthogonalEdgeStyle;rounded=0;orthogonalLoop=1;jettySize=auto;html=1;entryX=-0.012;entryY=0.153;entryDx=0;entryDy=0;exitX=1.014;exitY=0.157;exitDx=0;exitDy=0;entryPerimeter=0;exitPerimeter=0;" edge="1" parent="1" source="TUGLYmm9lG8WNnv0RRxV-2" target="TUGLYmm9lG8WNnv0RRxV-5">
          <mxGeometry relative="1" as="geometry" />
        </mxCell>
        <mxCell id="TUGLYmm9lG8WNnv0RRxV-10" style="edgeStyle=orthogonalEdgeStyle;rounded=0;orthogonalLoop=1;jettySize=auto;html=1;exitX=1.005;exitY=0.542;exitDx=0;exitDy=0;entryX=0.003;entryY=0.537;entryDx=0;entryDy=0;entryPerimeter=0;exitPerimeter=0;" edge="1" parent="1" source="TUGLYmm9lG8WNnv0RRxV-2" target="TUGLYmm9lG8WNnv0RRxV-5">
          <mxGeometry relative="1" as="geometry" />
        </mxCell>
        <mxCell id="TUGLYmm9lG8WNnv0RRxV-11" value="3" style="edgeLabel;html=1;align=center;verticalAlign=middle;resizable=0;points=[];" vertex="1" connectable="0" parent="TUGLYmm9lG8WNnv0RRxV-10">
          <mxGeometry x="0.023" relative="1" as="geometry">
            <mxPoint as="offset" />
          </mxGeometry>
        </mxCell>
        <mxCell id="TUGLYmm9lG8WNnv0RRxV-2" value="FE" style="rounded=1;whiteSpace=wrap;html=1;absoluteArcSize=1;arcSize=14;strokeWidth=2;" vertex="1" parent="1">
          <mxGeometry x="-745" y="120" width="120" height="60" as="geometry" />
        </mxCell>
        <mxCell id="TUGLYmm9lG8WNnv0RRxV-3" value="API" style="rounded=1;whiteSpace=wrap;html=1;absoluteArcSize=1;arcSize=14;strokeWidth=2;" vertex="1" parent="1">
          <mxGeometry x="-745" y="230" width="120" height="50" as="geometry" />
        </mxCell>
        <mxCell id="TUGLYmm9lG8WNnv0RRxV-8" style="edgeStyle=orthogonalEdgeStyle;rounded=0;orthogonalLoop=1;jettySize=auto;html=1;exitX=-0.014;exitY=0.315;exitDx=0;exitDy=0;entryX=0.996;entryY=0.324;entryDx=0;entryDy=0;exitPerimeter=0;entryPerimeter=0;" edge="1" parent="1" source="TUGLYmm9lG8WNnv0RRxV-5" target="TUGLYmm9lG8WNnv0RRxV-2">
          <mxGeometry relative="1" as="geometry" />
        </mxCell>
        <mxCell id="TUGLYmm9lG8WNnv0RRxV-9" value="2" style="edgeLabel;html=1;align=center;verticalAlign=middle;resizable=0;points=[];" vertex="1" connectable="0" parent="TUGLYmm9lG8WNnv0RRxV-8">
          <mxGeometry x="-0.0337" y="1" relative="1" as="geometry">
            <mxPoint as="offset" />
          </mxGeometry>
        </mxCell>
        <mxCell id="TUGLYmm9lG8WNnv0RRxV-13" style="edgeStyle=orthogonalEdgeStyle;rounded=0;orthogonalLoop=1;jettySize=auto;html=1;exitX=0;exitY=0.75;exitDx=0;exitDy=0;entryX=1;entryY=0.75;entryDx=0;entryDy=0;" edge="1" parent="1" source="TUGLYmm9lG8WNnv0RRxV-5" target="TUGLYmm9lG8WNnv0RRxV-2">
          <mxGeometry relative="1" as="geometry" />
        </mxCell>
        <mxCell id="TUGLYmm9lG8WNnv0RRxV-14" value="4" style="edgeLabel;html=1;align=center;verticalAlign=middle;resizable=0;points=[];" vertex="1" connectable="0" parent="TUGLYmm9lG8WNnv0RRxV-13">
          <mxGeometry x="-0.0341" y="-1" relative="1" as="geometry">
            <mxPoint as="offset" />
          </mxGeometry>
        </mxCell>
        <mxCell id="TUGLYmm9lG8WNnv0RRxV-5" value="STS (secure token service)" style="rounded=1;whiteSpace=wrap;html=1;absoluteArcSize=1;arcSize=14;strokeWidth=2;" vertex="1" parent="1">
          <mxGeometry x="-475" y="120" width="115" height="60" as="geometry" />
        </mxCell>
        <mxCell id="TUGLYmm9lG8WNnv0RRxV-15" value="&lt;font style=&quot;font-size: 6px;&quot;&gt;Token (+ refresh token)&lt;/font&gt;" style="text;html=1;align=center;verticalAlign=middle;resizable=0;points=[];autosize=1;strokeColor=none;fillColor=none;" vertex="1" parent="1">
          <mxGeometry x="-625" y="154" width="90" height="30" as="geometry" />
        </mxCell>
        <mxCell id="TUGLYmm9lG8WNnv0RRxV-17" value="&lt;font style=&quot;font-size: 6px;&quot;&gt;Challengers (code)&lt;/font&gt;" style="text;html=1;align=center;verticalAlign=middle;resizable=0;points=[];autosize=1;strokeColor=none;fillColor=none;" vertex="1" parent="1">
          <mxGeometry x="-615" y="130" width="70" height="30" as="geometry" />
        </mxCell>
        <mxCell id="TUGLYmm9lG8WNnv0RRxV-21" style="edgeStyle=orthogonalEdgeStyle;rounded=0;orthogonalLoop=1;jettySize=auto;html=1;" edge="1" parent="1" source="TUGLYmm9lG8WNnv0RRxV-18" target="TUGLYmm9lG8WNnv0RRxV-19">
          <mxGeometry relative="1" as="geometry" />
        </mxCell>
        <mxCell id="TUGLYmm9lG8WNnv0RRxV-22" value="Login" style="edgeLabel;html=1;align=center;verticalAlign=middle;resizable=0;points=[];" vertex="1" connectable="0" parent="TUGLYmm9lG8WNnv0RRxV-21">
          <mxGeometry x="-0.1352" relative="1" as="geometry">
            <mxPoint as="offset" />
          </mxGeometry>
        </mxCell>
        <mxCell id="TUGLYmm9lG8WNnv0RRxV-18" value="FE (SPA)" style="rounded=1;whiteSpace=wrap;html=1;absoluteArcSize=1;arcSize=14;strokeWidth=2;" vertex="1" parent="1">
          <mxGeometry x="-320" y="410" width="120" height="60" as="geometry" />
        </mxCell>
        <mxCell id="TUGLYmm9lG8WNnv0RRxV-23" style="edgeStyle=orthogonalEdgeStyle;rounded=0;orthogonalLoop=1;jettySize=auto;html=1;exitX=0.25;exitY=0;exitDx=0;exitDy=0;entryX=0.25;entryY=1;entryDx=0;entryDy=0;" edge="1" parent="1" source="TUGLYmm9lG8WNnv0RRxV-19" target="TUGLYmm9lG8WNnv0RRxV-18">
          <mxGeometry relative="1" as="geometry" />
        </mxCell>
        <mxCell id="TUGLYmm9lG8WNnv0RRxV-24" value="302" style="edgeLabel;html=1;align=center;verticalAlign=middle;resizable=0;points=[];" vertex="1" connectable="0" parent="TUGLYmm9lG8WNnv0RRxV-23">
          <mxGeometry x="0.048" y="1" relative="1" as="geometry">
            <mxPoint as="offset" />
          </mxGeometry>
        </mxCell>
        <mxCell id="TUGLYmm9lG8WNnv0RRxV-29" style="rounded=0;orthogonalLoop=1;jettySize=auto;html=1;entryX=0.5;entryY=1;entryDx=0;entryDy=0;exitX=1;exitY=0.5;exitDx=0;exitDy=0;" edge="1" parent="1" source="TUGLYmm9lG8WNnv0RRxV-19" target="TUGLYmm9lG8WNnv0RRxV-20">
          <mxGeometry relative="1" as="geometry">
            <mxPoint x="-197" y="600" as="sourcePoint" />
          </mxGeometry>
        </mxCell>
        <mxCell id="TUGLYmm9lG8WNnv0RRxV-30" value="Exchange" style="edgeLabel;html=1;align=center;verticalAlign=middle;resizable=0;points=[];" vertex="1" connectable="0" parent="TUGLYmm9lG8WNnv0RRxV-29">
          <mxGeometry x="-0.043" y="3" relative="1" as="geometry">
            <mxPoint as="offset" />
          </mxGeometry>
        </mxCell>
        <mxCell id="TUGLYmm9lG8WNnv0RRxV-67" style="edgeStyle=orthogonalEdgeStyle;rounded=0;orthogonalLoop=1;jettySize=auto;html=1;" edge="1" parent="1" source="TUGLYmm9lG8WNnv0RRxV-19">
          <mxGeometry relative="1" as="geometry">
            <mxPoint x="-260" y="710" as="targetPoint" />
          </mxGeometry>
        </mxCell>
        <mxCell id="TUGLYmm9lG8WNnv0RRxV-19" value="BFF" style="rounded=1;whiteSpace=wrap;html=1;absoluteArcSize=1;arcSize=14;strokeWidth=2;" vertex="1" parent="1">
          <mxGeometry x="-320" y="570" width="120" height="70" as="geometry" />
        </mxCell>
        <mxCell id="TUGLYmm9lG8WNnv0RRxV-27" style="rounded=0;orthogonalLoop=1;jettySize=auto;html=1;exitX=0;exitY=1;exitDx=0;exitDy=0;entryX=1;entryY=0;entryDx=0;entryDy=0;" edge="1" parent="1" source="TUGLYmm9lG8WNnv0RRxV-20" target="TUGLYmm9lG8WNnv0RRxV-19">
          <mxGeometry relative="1" as="geometry" />
        </mxCell>
        <mxCell id="TUGLYmm9lG8WNnv0RRxV-28" value="challenger" style="edgeLabel;html=1;align=center;verticalAlign=middle;resizable=0;points=[];" vertex="1" connectable="0" parent="TUGLYmm9lG8WNnv0RRxV-27">
          <mxGeometry x="-0.0481" y="-1" relative="1" as="geometry">
            <mxPoint as="offset" />
          </mxGeometry>
        </mxCell>
        <mxCell id="TUGLYmm9lG8WNnv0RRxV-31" style="rounded=0;orthogonalLoop=1;jettySize=auto;html=1;exitX=1;exitY=1;exitDx=0;exitDy=0;entryX=1;entryY=1;entryDx=0;entryDy=0;" edge="1" parent="1" source="TUGLYmm9lG8WNnv0RRxV-20" target="TUGLYmm9lG8WNnv0RRxV-19">
          <mxGeometry relative="1" as="geometry" />
        </mxCell>
        <mxCell id="TUGLYmm9lG8WNnv0RRxV-32" value="Token" style="edgeLabel;html=1;align=center;verticalAlign=middle;resizable=0;points=[];" vertex="1" connectable="0" parent="TUGLYmm9lG8WNnv0RRxV-31">
          <mxGeometry x="-0.0931" y="2" relative="1" as="geometry">
            <mxPoint as="offset" />
          </mxGeometry>
        </mxCell>
        <mxCell id="TUGLYmm9lG8WNnv0RRxV-20" value="STS (secure token service)" style="rounded=1;whiteSpace=wrap;html=1;absoluteArcSize=1;arcSize=14;strokeWidth=2;" vertex="1" parent="1">
          <mxGeometry x="-20" y="410" width="115" height="60" as="geometry" />
        </mxCell>
        <mxCell id="TUGLYmm9lG8WNnv0RRxV-25" style="edgeStyle=orthogonalEdgeStyle;rounded=0;orthogonalLoop=1;jettySize=auto;html=1;exitX=1;exitY=0.25;exitDx=0;exitDy=0;entryX=-0.032;entryY=0.26;entryDx=0;entryDy=0;entryPerimeter=0;" edge="1" parent="1" source="TUGLYmm9lG8WNnv0RRxV-18" target="TUGLYmm9lG8WNnv0RRxV-20">
          <mxGeometry relative="1" as="geometry" />
        </mxCell>
        <mxCell id="TUGLYmm9lG8WNnv0RRxV-35" value="FE" style="rounded=1;whiteSpace=wrap;html=1;absoluteArcSize=1;arcSize=14;strokeWidth=2;" vertex="1" parent="1">
          <mxGeometry x="-30" y="660" width="120" height="60" as="geometry" />
        </mxCell>
        <mxCell id="TUGLYmm9lG8WNnv0RRxV-62" style="rounded=0;orthogonalLoop=1;jettySize=auto;html=1;entryX=0.5;entryY=0;entryDx=0;entryDy=0;" edge="1" parent="1" source="TUGLYmm9lG8WNnv0RRxV-40" target="TUGLYmm9lG8WNnv0RRxV-47">
          <mxGeometry relative="1" as="geometry" />
        </mxCell>
        <mxCell id="TUGLYmm9lG8WNnv0RRxV-63" style="edgeStyle=orthogonalEdgeStyle;rounded=0;orthogonalLoop=1;jettySize=auto;html=1;exitX=0.5;exitY=1;exitDx=0;exitDy=0;entryX=0.5;entryY=0;entryDx=0;entryDy=0;" edge="1" parent="1" source="TUGLYmm9lG8WNnv0RRxV-40" target="TUGLYmm9lG8WNnv0RRxV-48">
          <mxGeometry relative="1" as="geometry" />
        </mxCell>
        <mxCell id="TUGLYmm9lG8WNnv0RRxV-64" style="rounded=0;orthogonalLoop=1;jettySize=auto;html=1;exitX=0.921;exitY=1.035;exitDx=0;exitDy=0;entryX=0.5;entryY=0;entryDx=0;entryDy=0;exitPerimeter=0;" edge="1" parent="1" source="TUGLYmm9lG8WNnv0RRxV-40" target="TUGLYmm9lG8WNnv0RRxV-49">
          <mxGeometry relative="1" as="geometry" />
        </mxCell>
        <mxCell id="TUGLYmm9lG8WNnv0RRxV-40" value="BFF" style="rounded=1;whiteSpace=wrap;html=1;absoluteArcSize=1;arcSize=14;strokeWidth=2;" vertex="1" parent="1">
          <mxGeometry x="-30" y="820" width="120" height="70" as="geometry" />
        </mxCell>
        <mxCell id="TUGLYmm9lG8WNnv0RRxV-45" value="STS (secure token service)" style="rounded=1;whiteSpace=wrap;html=1;absoluteArcSize=1;arcSize=14;strokeWidth=2;" vertex="1" parent="1">
          <mxGeometry x="240" y="660" width="115" height="60" as="geometry" />
        </mxCell>
        <mxCell id="TUGLYmm9lG8WNnv0RRxV-47" value="API" style="rounded=1;whiteSpace=wrap;html=1;absoluteArcSize=1;arcSize=14;strokeWidth=2;" vertex="1" parent="1">
          <mxGeometry x="-170" y="960" width="120" height="70" as="geometry" />
        </mxCell>
        <mxCell id="TUGLYmm9lG8WNnv0RRxV-48" value="API" style="rounded=1;whiteSpace=wrap;html=1;absoluteArcSize=1;arcSize=14;strokeWidth=2;" vertex="1" parent="1">
          <mxGeometry x="-30" y="960" width="120" height="70" as="geometry" />
        </mxCell>
        <mxCell id="TUGLYmm9lG8WNnv0RRxV-49" value="API" style="rounded=1;whiteSpace=wrap;html=1;absoluteArcSize=1;arcSize=14;strokeWidth=2;" vertex="1" parent="1">
          <mxGeometry x="120" y="960" width="120" height="70" as="geometry" />
        </mxCell>
        <mxCell id="TUGLYmm9lG8WNnv0RRxV-51" style="edgeStyle=orthogonalEdgeStyle;rounded=0;orthogonalLoop=1;jettySize=auto;html=1;strokeColor=default;" edge="1" parent="1" source="TUGLYmm9lG8WNnv0RRxV-50" target="TUGLYmm9lG8WNnv0RRxV-19">
          <mxGeometry relative="1" as="geometry" />
        </mxCell>
        <mxCell id="TUGLYmm9lG8WNnv0RRxV-50" value="" style="shape=datastore;whiteSpace=wrap;html=1;" vertex="1" parent="1">
          <mxGeometry x="-410" y="587.5" width="20" height="35" as="geometry" />
        </mxCell>
        <mxCell id="TUGLYmm9lG8WNnv0RRxV-53" value="Sessions, tokens, refresh tokens" style="text;html=1;align=center;verticalAlign=middle;resizable=0;points=[];autosize=1;strokeColor=none;fillColor=none;" vertex="1" parent="1">
          <mxGeometry x="-540" y="630" width="200" height="30" as="geometry" />
        </mxCell>
        <mxCell id="TUGLYmm9lG8WNnv0RRxV-57" style="edgeStyle=orthogonalEdgeStyle;rounded=0;orthogonalLoop=1;jettySize=auto;html=1;strokeColor=default;" edge="1" parent="1" source="TUGLYmm9lG8WNnv0RRxV-58">
          <mxGeometry relative="1" as="geometry">
            <mxPoint x="-30" y="855" as="targetPoint" />
          </mxGeometry>
        </mxCell>
        <mxCell id="TUGLYmm9lG8WNnv0RRxV-58" value="" style="shape=datastore;whiteSpace=wrap;html=1;" vertex="1" parent="1">
          <mxGeometry x="-120" y="837.5" width="20" height="35" as="geometry" />
        </mxCell>
        <mxCell id="TUGLYmm9lG8WNnv0RRxV-59" value="Sessions, tokens, refresh tokens" style="text;html=1;align=center;verticalAlign=middle;resizable=0;points=[];autosize=1;strokeColor=none;fillColor=none;" vertex="1" parent="1">
          <mxGeometry x="-320" y="840" width="200" height="30" as="geometry" />
        </mxCell>
        <mxCell id="TUGLYmm9lG8WNnv0RRxV-60" style="edgeStyle=orthogonalEdgeStyle;rounded=0;orthogonalLoop=1;jettySize=auto;html=1;entryX=0.502;entryY=-0.051;entryDx=0;entryDy=0;entryPerimeter=0;" edge="1" parent="1" source="TUGLYmm9lG8WNnv0RRxV-35" target="TUGLYmm9lG8WNnv0RRxV-40">
          <mxGeometry relative="1" as="geometry" />
        </mxCell>
        <mxCell id="TUGLYmm9lG8WNnv0RRxV-61" value="call + cookie" style="text;html=1;align=center;verticalAlign=middle;resizable=0;points=[];autosize=1;strokeColor=none;fillColor=none;" vertex="1" parent="1">
          <mxGeometry x="30" y="748" width="90" height="30" as="geometry" />
        </mxCell>
        <mxCell id="TUGLYmm9lG8WNnv0RRxV-66" value="proxy" style="text;html=1;align=center;verticalAlign=middle;resizable=0;points=[];autosize=1;strokeColor=none;fillColor=none;" vertex="1" parent="1">
          <mxGeometry x="45" y="910" width="50" height="30" as="geometry" />
        </mxCell>
        <mxCell id="TUGLYmm9lG8WNnv0RRxV-68" value="API" style="rounded=1;whiteSpace=wrap;html=1;absoluteArcSize=1;arcSize=14;strokeWidth=2;" vertex="1" parent="1">
          <mxGeometry x="-320" y="710" width="120" height="70" as="geometry" />
        </mxCell>
        <mxCell id="TUGLYmm9lG8WNnv0RRxV-72" value="" style="shape=partialRectangle;whiteSpace=wrap;html=1;bottom=0;right=0;fillColor=none;rotation=-90;" vertex="1" parent="1">
          <mxGeometry x="-630" y="500" width="260" height="60" as="geometry" />
        </mxCell>
        <mxCell id="TUGLYmm9lG8WNnv0RRxV-73" value="app.mydomain.com" style="text;html=1;align=center;verticalAlign=middle;resizable=0;points=[];autosize=1;strokeColor=none;fillColor=none;" vertex="1" parent="1">
          <mxGeometry x="-655" y="520" width="130" height="30" as="geometry" />
        </mxCell>
        <mxCell id="TUGLYmm9lG8WNnv0RRxV-74" value="BBF: app.mydomain.com/api" style="text;html=1;align=center;verticalAlign=middle;resizable=0;points=[];autosize=1;strokeColor=none;fillColor=none;" vertex="1" parent="1">
          <mxGeometry x="-705" y="592.5" width="180" height="30" as="geometry" />
        </mxCell>
        <mxCell id="TUGLYmm9lG8WNnv0RRxV-75" value="" style="shape=partialRectangle;whiteSpace=wrap;html=1;top=0;left=0;fillColor=none;rotation=-90;flipV=1;" vertex="1" parent="1">
          <mxGeometry x="-560" y="690" width="120" height="60" as="geometry" />
        </mxCell>
        <mxCell id="TUGLYmm9lG8WNnv0RRxV-77" value="&lt;h1&gt;Secure BFF&lt;/h1&gt;" style="text;html=1;align=center;verticalAlign=middle;resizable=0;points=[];autosize=1;strokeColor=none;fillColor=none;" vertex="1" parent="1">
          <mxGeometry x="-840" y="300" width="160" height="70" as="geometry" />
        </mxCell>
        <mxCell id="TUGLYmm9lG8WNnv0RRxV-78" value="&lt;h1&gt;Traditional&amp;nbsp;&lt;/h1&gt;" style="text;html=1;align=center;verticalAlign=middle;resizable=0;points=[];autosize=1;strokeColor=none;fillColor=none;" vertex="1" parent="1">
          <mxGeometry x="-840" y="30" width="150" height="70" as="geometry" />
        </mxCell>
        <mxCell id="TUGLYmm9lG8WNnv0RRxV-79" value="" style="strokeWidth=2;html=1;shape=mxgraph.flowchart.annotation_1;align=left;pointerEvents=1;" vertex="1" parent="1">
          <mxGeometry x="-753" y="520" width="50" height="100" as="geometry" />
        </mxCell>
        <mxCell id="TUGLYmm9lG8WNnv0RRxV-80" value="NGINX Docker&lt;div&gt;(Redirect)&lt;/div&gt;" style="text;html=1;align=center;verticalAlign=middle;resizable=0;points=[];autosize=1;strokeColor=none;fillColor=none;" vertex="1" parent="1">
          <mxGeometry x="-850" y="550" width="100" height="40" as="geometry" />
        </mxCell>
        <mxCell id="TUGLYmm9lG8WNnv0RRxV-81" value="&lt;h6&gt;Reverse Proxy&lt;/h6&gt;" style="text;html=1;align=center;verticalAlign=middle;resizable=0;points=[];autosize=1;strokeColor=none;fillColor=none;" vertex="1" parent="1">
          <mxGeometry x="-640" y="540" width="80" height="60" as="geometry" />
        </mxCell>
      </root>
    </mxGraphModel>
  </diagram>
</mxfile>
